<?xml version="1.0" encoding="UTF-8" standalone="no"?><!DOCTYPE svg PUBLIC "-//W3C//DTD SVG 1.1//EN" "http://www.w3.org/Graphics/SVG/1.1/DTD/svg11.dtd"><svg width="100%" height="100%" viewBox="0 0 203 44" version="1.1" xmlns="http://www.w3.org/2000/svg" xmlns:xlink="http://www.w3.org/1999/xlink" xml:space="preserve" style="fill-rule:evenodd;clip-rule:evenodd;stroke-linejoin:round;stroke-miterlimit:1.41421;"><g><g id="XMLID_57_"><circle id="XMLID_68_" cx="21.8" cy="21.8" r="21.7" style="fill:#f4b960;"/><circle id="XMLID_67_" cx="19.6" cy="19.6" r="19.6" style="fill:#e66f32;"/><circle id="XMLID_66_" cx="22.3" cy="17.1" r="17" style="fill:#e43c41;"/><circle id="XMLID_65_" cx="23.6" cy="18.4" r="15.6" style="fill:#bdd041;"/><circle id="XMLID_64_" cx="22.5" cy="19.6" r="14.5" style="fill:#6db54c;"/><circle id="XMLID_63_" cx="20.2" cy="17.2" r="12.1" style="fill:#aedae6;"/><circle id="XMLID_62_" cx="22.1" cy="15.2" r="10.2" style="fill:#56b8de;"/><circle id="XMLID_61_" cx="23.4" cy="16.6" r="8.9" style="fill:#00b1d5;"/><circle id="XMLID_60_" cx="22.1" cy="17.8" r="7.6" style="fill:url(#_Radial1);"/><circle id="XMLID_59_" cx="22.1" cy="17.8" r="7.6" style="fill:#221f1f;"/><path id="XMLID_58_" d="M23.775,14.434c0.543,-1.208 1.596,-1.914 2.351,-1.576c0.756,0.339 0.929,1.596 0.386,2.804c-0.542,1.209 -1.595,1.915 -2.351,1.576c-0.755,-0.339 -0.928,-1.595 -0.386,-2.804Z" style="fill:#fff;"/></g><path id="XMLID_53_" d="M50.6,13.6c0,-0.1 0.1,-0.3 0.3,-0.3l6.9,0c3.9,0 5.7,1.8 5.7,4.5c0,2 -1,3 -2.2,3.6l0,0.1c1.1,0.4 2.5,1.8 2.5,3.9c0,3.4 -2.3,5 -6.3,5l-6.6,0c-0.1,0 -0.3,-0.1 -0.3,-0.3l0,-16.5Zm7.1,6.8c1.6,0 2.6,-0.9 2.6,-2.2c0,-1.4 -1,-2.3 -2.6,-2.3l-3.7,0c-0.1,0 -0.1,0.1 -0.1,0.1l0,4.2c0,0.1 0.1,0.1 0.1,0.1c-0.1,0.1 3.7,0.1 3.7,0.1Zm-3.8,7.2l3.9,0c1.8,0 2.8,-0.9 2.8,-2.4c0,-1.5 -1,-2.4 -2.8,-2.4l-3.9,0c-0.1,0 -0.1,0.1 -0.1,0.1l0,4.4c-0.1,0.3 0.1,0.3 0.1,0.3Z" style="fill:#221f1f;fill-rule:nonzero;"/><path id="XMLID_51_" d="M66,30.2c-0.1,0 -0.3,-0.1 -0.3,-0.3l0,-11.6c0,-0.1 0.1,-0.3 0.3,-0.3l2.5,0c0.1,0 0.3,0.1 0.3,0.3l0,1l0.1,0c0.6,-0.9 1.8,-1.6 3.4,-1.6c1,0 2.1,0.4 2.7,1c0.1,0.1 0.1,0.3 0.1,0.3l-1.4,1.7c-0.1,0.1 -0.3,0.1 -0.4,0.1c-0.6,-0.3 -1.2,-0.6 -2,-0.6c-1.7,0 -2.5,1.1 -2.5,3.1l0,6.5c0,0.1 -0.1,0.3 -0.3,0.3l-2.5,0.1Z" style="fill:#221f1f;fill-rule:nonzero;"/><path id="XMLID_48_" d="M75.5,27.2c-0.3,-0.8 -0.5,-1.6 -0.5,-3c0,-1.4 0.1,-2.2 0.5,-3c0.8,-2.2 2.7,-3.3 5.4,-3.3c2.7,0 4.6,1.2 5.4,3.3c0.3,0.8 0.5,1.6 0.5,3c0,1.4 -0.1,2.2 -0.5,3c-0.8,2.2 -2.7,3.3 -5.4,3.3c-2.7,0 -4.7,-1.1 -5.4,-3.3Zm7.9,-0.7c0.3,-0.6 0.3,-1.2 0.3,-2.2c0,-1 -0.1,-1.6 -0.3,-2.2c-0.4,-1 -1.2,-1.6 -2.5,-1.6c-1.2,0 -2.1,0.6 -2.5,1.6c-0.3,0.7 -0.3,1.2 -0.3,2.2c0,1 0.1,1.6 0.3,2.2c0.4,1 1.2,1.6 2.5,1.6c1.2,0 2,-0.6 2.5,-1.6Z" style="fill:#221f1f;fill-rule:nonzero;"/><path id="XMLID_46_" d="M99.8,30.2c-0.1,0 -0.3,-0.1 -0.3,-0.3l-2.5,-7.8l-0.1,0l-2.5,7.7c-0.1,0.1 -0.1,0.3 -0.3,0.3l-2.2,0c-0.1,0 -0.3,-0.1 -0.3,-0.3l-4.1,-11.6c-0.1,-0.1 0.1,-0.3 0.2,-0.3l2.6,0c0.2,0 0.3,0.1 0.3,0.3l2.5,8l0.1,0l2.5,-8c0.1,-0.1 0.2,-0.3 0.3,-0.3l2,0c0.1,0 0.3,0.1 0.3,0.3l2.6,8l0.1,0l2.4,-8c0.1,-0.2 0.1,-0.3 0.3,-0.3l2.6,0c0.1,0 0.3,0.1 0.2,0.3l-4,11.6c-0.1,0.1 -0.1,0.3 -0.3,0.3l-2.4,0.1Z" style="fill:#221f1f;fill-rule:nonzero;"/><path id="XMLID_44_" d="M107,28.6c-0.1,-0.1 -0.1,-0.3 0,-0.3l1.6,-1.5c0.1,-0.1 0.3,-0.1 0.4,0c0.9,0.8 2.5,1.4 3.9,1.4c1.6,0 2.4,-0.6 2.4,-1.4c0,-0.7 -0.5,-1.2 -2.2,-1.3l-1.4,-0.1c-2.6,-0.3 -4,-1.5 -4,-3.5c0,-2.3 1.8,-3.9 5,-3.9c2,0 3.7,0.6 4.9,1.4c0.1,0.1 0.1,0.3 0.1,0.3l-1.3,1.4c-0.1,0.1 -0.3,0.1 -0.4,0.1c-0.8,-0.5 -2.2,-1 -3.4,-1c-1.3,0 -2,0.5 -2,1.3c0,0.7 0.5,1.1 2.2,1.3l1.4,0.1c2.7,0.3 4,1.6 4,3.5c0,2.4 -1.9,4.1 -5.5,4.1c-2.7,0.1 -4.6,-0.9 -5.7,-1.9Z" style="fill:#221f1f;fill-rule:nonzero;"/><path id="XMLID_41_" d="M120.2,27.2c-0.3,-0.8 -0.5,-1.7 -0.5,-3c0,-1.3 0.1,-2.2 0.5,-3c0.8,-2.2 2.7,-3.3 5.4,-3.3c2.7,0 4.6,1.3 5.4,3.3c0.3,0.8 0.5,1.7 0.5,3.7c0,0.1 -0.1,0.3 -0.3,0.3l-8.2,0c-0.1,0 -0.1,0.1 -0.1,0.1c0,0.3 0.1,0.7 0.2,0.9c0.5,1.2 1.4,1.8 2.9,1.8c1.5,0 2.4,-0.5 3.1,-1.1c0.1,-0.1 0.3,-0.1 0.5,-0.1l1.6,1.3c0.1,0.1 0.1,0.3 0.1,0.3c-1.1,1.2 -3,2.1 -5.4,2.1c-3,0.1 -5,-1.1 -5.7,-3.3Zm7.9,-5.4c-0.3,-1 -1.3,-1.6 -2.5,-1.6c-1.2,0 -2.2,0.6 -2.6,1.6c-0.1,0.3 -0.1,0.6 -0.1,1c0,0.1 0.1,0.1 0.1,0.1l5.2,0c0.1,0 0.1,-0.1 0.1,-0.1c-0.1,-0.3 -0.1,-0.7 -0.2,-1Z" style="fill:#221f1f;fill-rule:nonzero;"/><path id="XMLID_39_" d="M133.5,30.2c-0.1,0 -0.3,-0.1 -0.3,-0.3l0,-11.6c0,-0.1 0.1,-0.3 0.3,-0.3l2.5,0c0.1,0 0.3,0.1 0.3,0.3l0,1l0.1,0c0.6,-0.9 1.8,-1.6 3.4,-1.6c1,0 2.1,0.4 2.7,1c0.1,0.1 0.1,0.3 0.1,0.3l-1.4,1.7c-0.1,0.1 -0.3,0.1 -0.4,0.1c-0.6,-0.3 -1.2,-0.6 -2,-0.6c-1.7,0 -2.5,1.1 -2.5,3.1l0,6.5c0,0.1 -0.1,0.3 -0.3,0.3l-2.5,0.1Z" style="fill:#221f1f;fill-rule:nonzero;"/><path id="XMLID_37_" d="M143,28.4c-0.1,-0.1 -0.1,-0.3 -0.1,-0.4l1.7,-1.8c0.1,-0.1 0.3,-0.1 0.4,-0.1c1.2,0.9 3,1.8 5,1.8c2.2,0 3.5,-1 3.5,-2.5c0,-1.2 -0.8,-2 -3.3,-2.4l-1,-0.1c-3.5,-0.5 -5.5,-2 -5.5,-4.8c0,-3.1 2.5,-5.2 6.2,-5.2c2.3,0 4.5,0.7 5.9,1.7c0.1,0.1 0.1,0.2 0.1,0.3l-1.3,1.8c-0.1,0.1 -0.3,0.1 -0.4,0.1c-1.5,-0.9 -2.9,-1.3 -4.4,-1.3c-1.9,0 -2.9,0.9 -2.9,2.3c0,1.2 0.9,2 3.4,2.3l1,0.1c3.5,0.5 5.5,2 5.5,5c0,3 -2.4,5.3 -6.9,5.3c-2.9,0.1 -5.5,-0.9 -6.9,-2.1Z" style="fill:#221f1f;fill-rule:nonzero;"/><path id="XMLID_35_" d="M162.3,30.5c-2.6,0 -3.7,-1.2 -3.7,-3.5l0,-6.4c0,-0.1 -0.1,-0.1 -0.1,-0.1l-0.8,0c-0.1,0 -0.3,-0.1 -0.3,-0.3l0,-1.7c0,-0.1 0.1,-0.3 0.3,-0.3l0.8,0c0.1,0 0.1,-0.1 0.1,-0.1l0,-3.3c0,-0.1 0.1,-0.3 0.3,-0.3l2.5,0c0.1,0 0.3,0.1 0.3,0.3l0,3.3c0,0.1 0.1,0.1 0.1,0.1l1.8,0c0.1,0 0.3,0.1 0.3,0.3l0,1.7c0,0.1 -0.1,0.3 -0.3,0.3l-1.8,0c-0.1,0 -0.1,0.1 -0.1,0.1l0,6.3c0,0.8 0.4,1.1 1.2,1.1l0.7,0c0.1,0 0.3,0.1 0.3,0.3l0,2c0,0.1 -0.1,0.3 -0.3,0.3l-1.3,-0.1Z" style="fill:#221f1f;fill-rule:nonzero;"/><path id="XMLID_32_" d="M173.8,30.2c-0.1,0 -0.3,-0.1 -0.3,-0.3l0,-0.9c-0.6,0.8 -1.8,1.4 -3.7,1.4c-2.4,0 -4.4,-1.1 -4.4,-3.7c0,-2.6 2,-3.9 5.2,-3.9l2.6,0c0.1,0 0.1,-0.1 0.1,-0.1l0,-0.6c0,-1.4 -0.7,-2 -2.9,-2c-1.4,0 -2.4,0.4 -3,0.8c-0.1,0.1 -0.3,0.1 -0.4,-0.1l-1,-1.6c-0.1,-0.1 -0.1,-0.3 0.1,-0.3c1,-0.7 2.5,-1.2 4.6,-1.2c4,0 5.4,1.3 5.4,4.2l0,7.8c0,0.1 -0.1,0.3 -0.3,0.3l-2,0.2Zm-0.3,-4l0,-0.9c0,-0.1 -0.1,-0.1 -0.1,-0.1l-2.2,0c-2,0 -2.8,0.5 -2.8,1.6c0,1 0.8,1.5 2.3,1.5c1.7,-0.1 2.8,-0.7 2.8,-2.1Z" style="fill:#221f1f;fill-rule:nonzero;"/><path id="XMLID_30_" d="M178.7,27.2c-0.3,-0.8 -0.5,-1.7 -0.5,-3c0,-1.3 0.1,-2.2 0.5,-3c0.8,-2.2 2.8,-3.3 5.4,-3.3c2,0 3.5,0.7 4.5,1.9c0.1,0.1 0.1,0.3 -0.1,0.3l-1.7,1.4c-0.1,0.1 -0.3,0.1 -0.4,-0.1c-0.7,-0.7 -1.3,-1 -2.4,-1c-1.2,0 -2.1,0.5 -2.5,1.6c-0.3,0.6 -0.3,1.3 -0.3,2.2c0,0.9 0.1,1.6 0.3,2.3c0.4,1 1.3,1.6 2.5,1.6c1.1,0 1.8,-0.4 2.4,-1c0.1,-0.1 0.3,-0.1 0.4,-0.1l1.7,1.4c0.1,0.1 0.1,0.3 0.1,0.3c-1,1.1 -2.6,1.8 -4.5,1.8c-2.6,0.1 -4.6,-1.1 -5.4,-3.3Z" style="fill:#221f1f;fill-rule:nonzero;"/><path id="XMLID_28_" d="M199.2,30.2c-0.2,0 -0.3,-0.1 -0.5,-0.3l-3.3,-5l-1.8,1.9l0,3.1c0,0.1 -0.1,0.3 -0.3,0.3l-2.5,0c-0.1,0 -0.3,-0.1 -0.3,-0.3l0,-16.5c0,-0.1 0.1,-0.3 0.3,-0.3l2.5,0c0.1,0 0.3,0.1 0.3,0.3l0,9.8l4.5,-4.8c0.1,-0.2 0.3,-0.3 0.5,-0.3l2.8,0c0.1,0 0.3,0.1 0.1,0.3l-4.2,4.4l4.7,7.2c0.1,0.1 0.1,0.3 -0.1,0.3l-2.7,-0.1Z" style="fill:#221f1f;fill-rule:nonzero;"/></g><defs><radialGradient id="_Radial1" cx="0" cy="0" r="1" gradientUnits="userSpaceOnUse" gradientTransform="matrix(7.661,0,0,-7.661,22.112,17.8999)"><stop offset="0" style="stop-color:#797979;stop-opacity:1"/><stop offset="1" style="stop-color:#4c4c4c;stop-opacity:1"/></radialGradient></defs></svg>